# xmcd CD database file
#
# Track frame offsets:
#	150
#	16415
#	30740
#	49264
#	63889
#	79217
#	97695
#	114930
#	130037
#	144615
#	157450
#	172035
#
# Disc length: 2530 seconds
#
# Revision: 2
# Processed by: cddbd v1.5.1PL0 Copyright (c) Steve Scherf et al.
# Submitted via: CDex 1.51
#
DISCID=9c09e00c
DTITLE=柏原芳恵 - Best
DYEAR=1994
DGENRE=Pop
TTITLE0=第二章・くちづけ
TTITLE1=フィフティーン・ラブ
TTITLE2=チャンスは急に
TTITLE3=毎日がバレンタイン
TTITLE4=めらんこりい白書
TTITLE5=何でもない　何でもない
TTITLE6=ガラスの夏
TTITLE7=抱きしめる、という感じ
TTITLE8=乙女心何色？
TTITLE9=レディ直前
TTITLE10=100%のかなしみ
TTITLE11=No.1
EXTD=YEAR: 1994
EXTT0=
EXTT1=
EXTT2=
EXTT3=
EXTT4=
EXTT5=
EXTT6=
EXTT7=
EXTT8=
EXTT9=
EXTT10=
EXTT11=
PLAYORDER=
